PathFileType	4	(X/Y/Z)	/Users/itak/Documents/Research/Walk-IL/dataset/trc/00384_00012.trc
DataRate	CameraRate	NumFrames	NumMarkers	Units	OrigDataRate	OrigDataStartFrame	OrigNumFrames
100.000000	100.000000	4	55	mm	100.000000	69	557
Frame#	Time	RPSI			LPSI			L3			STRN			T10			C7			CLAV			RBAK			LBAK			LSHO			LUPA			LAEL			LAOL			LWTS			LWPS			LFRA			LIFD			LHPS			LHTS			RSHO			RUPA			RAEL			RAOL			RWPS			RFRA			RIFD			RHPS			RBHD			LFHD			RFHD			LBHD			LHIP			RHIP			RASI			LASI			LKNE			LTHI			LANK			LTIP			LTOE			LMT1			LMT5			LHEE			RKNE			RTHI			RANK			RTIP			RTOE			RMT1			RMT5			RHEE			RHTS			RWTS			*53			*54			
		X1	Y1	Z1	X2	Y2	Z2	X3	Y3	Z3	X4	Y4	Z4	X5	Y5	Z5	X6	Y6	Z6	X7	Y7	Z7	X8	Y8	Z8	X9	Y9	Z9	X10	Y10	Z10	X11	Y11	Z11	X12	Y12	Z12	X13	Y13	Z13	X14	Y14	Z14	X15	Y15	Z15	X16	Y16	Z16	X17	Y17	Z17	X18	Y18	Z18	X19	Y19	Z19	X20	Y20	Z20	X21	Y21	Z21	X22	Y22	Z22	X23	Y23	Z23	X24	Y24	Z24	X25	Y25	Z25	X26	Y26	Z26	X27	Y27	Z27	X28	Y28	Z28	X29	Y29	Z29	X30	Y30	Z30	X31	Y31	Z31	X32	Y32	Z32	X33	Y33	Z33	X34	Y34	Z34	X35	Y35	Z35	X36	Y36	Z36	X37	Y37	Z37	X38	Y38	Z38	X39	Y39	Z39	X40	Y40	Z40	X41	Y41	Z41	X42	Y42	Z42	X43	Y43	Z43	X44	Y44	Z44	X45	Y45	Z45	X46	Y46	Z46	X47	Y47	Z47	X48	Y48	Z48	X49	Y49	Z49	X50	Y50	Z50	X51	Y51	Z51	X52	Y52	Z52	X53	Y53	Z53	X54	Y54	Z54	X55	Y55	Z55	

70	0.6900000000000001	-1602.1640625	991.319091796875	109.5725936889648	-1613.213989257812	983.2415771484375	-21.91863822937012	-1608.470703125	1056.830688476562	47.00919342041016	-1377.634887695312	1224.499267578125	42.46955871582031	-1623.119140625	1160.280151367188	42.60296630859375	-1598.356323242188	1411.161499023438	33.98291778564453	-1436.18212890625	1341.036987304688	43.15243911743164	-1633.20166015625	1261.296997070312	98.3955078125	-1608.38671875	1374.3564453125	-69.53929901123047	-1522.103759765625	1396.280151367188	-117.9654312133789	-1538.266357421875	1279.075927734375	-190.6170043945312	-1502.377319335938	1083.66357421875	-214.6108245849609	-1559.483642578125	1058.082641601562	-157.1703796386719	-1393.823486328125	879.5538940429688	-158.4811706542969	-1434.070556640625	862.350830078125	-227.2256774902344	-1474.14794921875	981.5980224609375	-220.9903411865234	-1377.453369140625	702.8318481445312	-156.2547912597656	-1409.813842773438	778.5634155273438	-216.5271759033203	-1362.14404296875	785.6190795898438	-176.0149841308594	-1545.237548828125	1391.468872070312	192.7359924316406	-1558.451904296875	1325.275756835938	250.9121856689453	-1540.33251953125	1065.68017578125	296.8582458496094	-1558.240356445312	1051.552734375	204.5831909179688	-1438.678955078125	849.0330810546875	334.8485717773438	-1509.586547851562	1003.002563476562	315.76025390625	-1389.8310546875	687.8211669921875	283.0473937988281	-1428.439819335938	759.4010620117188	337.9816284179688	-1578.063842773438	1599.33642578125	115.8549346923828	-1418.900634765625	1615.633422851562	-4.551879405975342	-1445.435668945312	1618.855102539062	115.3327026367188	-1559.766967773438	1591.274658203125	-45.65172958374023	-1530.79248046875	972.9996948242188	-138.7483215332031	-1513.081176757812	966.2542724609375	218.8973693847656	-1383.286010742188	978.746826171875	157.6227722167969	-1414.482421875	972.2810668945312	-104.1584243774414	-1482.494140625	479.7429504394531	-127.1864166259766	-1490.756713867188	622.5450439453125	-136.8171997070312	-1566.578002929688	43.94790649414062	-86.21150207519531	-1526.895751953125	247.2463226318359	-119.633171081543	-1351.08544921875	46.9775390625	-21.7152214050293	-1431.594116210938	46.78169250488281	7.23832893371582	-1438.603881835938	42.72848129272461	-97.73264312744141	-1603.213745117188	41.52133941650391	-28.24483489990234	-1480.42041015625	477.8187561035156	194.5631713867188	-1438.491943359375	740.6865844726562	217.7476806640625	-1530.022338867188	55.61933898925781	154.6910247802734	-1473.261962890625	351.595703125	178.04296875	-1355.13525390625	43.04388046264648	82.88340759277344	-1429.527954101562	46.82012176513672	57.27164840698242	-1445.293579101562	46.98435974121094	156.7676239013672	-1603.994140625	44.45356369018555	104.2514266967773	-1375.371337890625	756.3448486328125	298.33984375	-1397.8369140625	860.448974609375	274.6073303222656	nan	nan	nan	nan	nan	nan	
71	0.7000000000000001	-1602.104248046875	991.2958374023438	109.5716705322266	-1613.050170898438	983.2180786132812	-21.90200996398926	-1608.401245117188	1056.807495117188	46.99586868286133	-1377.620849609375	1224.53662109375	42.52116012573242	-1623.083129882812	1160.216186523438	42.60308837890625	-1598.365356445312	1411.144897460938	33.95976638793945	-1436.171264648438	1341.041137695312	43.17627334594727	-1633.216430664062	1261.258178710938	98.35499572753906	-1608.366577148438	1374.30224609375	-69.58879089355469	-1522.058959960938	1396.245239257812	-117.9847717285156	-1538.204956054688	1279.00390625	-190.6226806640625	-1502.333862304688	1083.600708007812	-214.5191345214844	-1559.438598632812	1058.035766601562	-157.0268707275391	-1393.828247070312	879.3855590820312	-158.3075866699219	-1434.088989257812	862.2220458984375	-227.0226440429688	-1474.10400390625	981.489990234375	-220.8188781738281	-1377.570434570312	702.7132568359375	-156.0157775878906	-1409.946044921875	778.4708862304688	-216.3399047851562	-1362.099487304688	785.5455322265625	-175.8146667480469	-1545.314086914062	1391.43994140625	192.7015991210938	-1558.604614257812	1325.277587890625	250.8565521240234	-1540.410278320312	1065.650512695312	296.7991027832031	-1558.245483398438	1051.547729492188	204.5689239501953	-1438.74267578125	849.0014038085938	334.8146057128906	-1509.657592773438	1002.977600097656	315.7004089355469	-1389.497192382812	687.890869140625	282.9871826171875	-1428.556518554688	759.3873291015625	337.9419555664062	-1578.1455078125	1599.28857421875	115.8331909179688	-1419.01025390625	1615.682861328125	-4.587738513946533	-1445.512573242188	1618.877807617188	115.3198165893555	-1559.818115234375	1591.229736328125	-45.68998336791992	-1530.54443359375	972.9840087890625	-138.6776733398438	-1512.992919921875	966.20947265625	218.9426574707031	-1383.146606445312	978.759765625	157.7085876464844	-1414.413208007812	972.2483520507812	-104.1134567260742	-1482.430053710938	479.7472839355469	-127.167854309082	-1490.668701171875	622.5477905273438	-136.7988433837891	-1566.574584960938	43.95883560180664	-86.21332550048828	-1526.838134765625	247.2517242431641	-119.6245193481445	-1351.056396484375	47.02223968505859	-21.61038780212402	-1431.715087890625	46.72033309936523	7.235577583312988	-1438.666381835938	42.76068496704102	-97.74407196044922	-1603.208984375	41.52181625366211	-28.24641990661621	-1480.425048828125	477.8155517578125	194.5665130615234	-1438.452270507812	740.6591186523438	217.7705535888672	-1530.030395507812	55.61984634399414	154.6944580078125	-1473.283569335938	351.6256103515625	178.0622406005859	-1355.138061523438	43.05810165405273	82.88730621337891	-1429.565551757812	46.81675338745117	57.26894378662109	-1445.289306640625	46.97639465332031	156.7677307128906	-1604.0205078125	44.47163391113281	104.2198791503906	-1375.34033203125	756.3367309570312	298.3249206542969	-1397.98388671875	860.4363403320312	274.5531311035156	nan	nan	nan	nan	nan	nan	
72	0.71	-1602.034790039062	991.271728515625	109.573127746582	-1612.882690429688	983.1942138671875	-21.88652610778809	-1608.325073242188	1056.782836914062	46.97933959960938	-1377.6015625	1224.571166992188	42.56830978393555	-1623.046752929688	1160.154052734375	42.60456848144531	-1598.367919921875	1411.123413085938	33.92683410644531	-1436.16357421875	1341.043579101562	43.19537734985352	-1633.2236328125	1261.222045898438	98.31352996826172	-1608.334228515625	1374.247314453125	-69.64359283447266	-1522.008178710938	1396.208374023438	-118.0114440917969	-1538.131958007812	1278.9296875	-190.6320495605469	-1502.2802734375	1083.53369140625	-214.4343414306641	-1559.365600585938	1057.982666015625	-156.884033203125	-1393.800659179688	879.2302856445312	-158.1494445800781	-1434.089233398438	862.0933227539062	-226.8297729492188	-1474.0458984375	981.380615234375	-220.6538391113281	-1377.681518554688	702.5844116210938	-155.7868041992188	-1410.09912109375	778.3881225585938	-216.1824188232422	-1362.049438476562	785.4732055664062	-175.6462554931641	-1545.382934570312	1391.41064453125	192.6652526855469	-1558.754638671875	1325.2783203125	250.7966918945312	-1540.485473632812	1065.625366210938	296.7427062988281	-1558.259399414062	1051.543823242188	204.5536041259766	-1438.800415039062	848.9742431640625	334.789306640625	-1509.737426757812	1002.954406738281	315.6434326171875	-1389.217895507812	687.9620971679688	282.9480590820312	-1428.6513671875	759.3787841796875	337.9104614257812	-1578.214965820312	1599.2392578125	115.8084106445312	-1419.099609375	1615.724365234375	-4.623375415802002	-1445.575439453125	1618.895874023438	115.3050231933594	-1559.870239257812	1591.19091796875	-45.73210525512695	-1530.3037109375	972.9696655273438	-138.6165008544922	-1512.920288085938	966.1658325195312	218.9796142578125	-1382.951538085938	978.776611328125	157.8106231689453	-1414.316162109375	972.2132568359375	-104.0634689331055	-1482.37255859375	479.7514038085938	-127.1520080566406	-1490.57861328125	622.5497436523438	-136.7805023193359	-1566.573486328125	43.96805953979492	-86.21595764160156	-1526.785766601562	247.2572937011719	-119.6177368164062	-1351.03076171875	47.06488800048828	-21.50720977783203	-1431.85693359375	46.65407180786133	7.230217456817627	-1438.726806640625	42.78955459594727	-97.75379943847656	-1603.205810546875	41.52224349975586	-28.24794387817383	-1480.427978515625	477.8115844726562	194.5713195800781	-1438.40869140625	740.6256713867188	217.7998962402344	-1530.036010742188	55.62049102783203	154.6964416503906	-1473.305786132812	351.6525573730469	178.0796813964844	-1355.12841796875	43.06492233276367	82.89194488525391	-1429.61279296875	46.80730819702148	57.26267623901367	-1445.285278320312	46.96894836425781	156.7678527832031	-1604.041381835938	44.48790740966797	104.1872100830078	-1375.3193359375	756.329345703125	298.3127746582031	-1398.098266601562	860.4298095703125	274.5101318359375	nan	nan	nan	nan	nan	nan	
73	0.72	-1601.951416015625	991.2501220703125	109.5748748779297	-1612.71533203125	983.1719360351562	-21.87437057495117	-1608.239135742188	1056.755126953125	46.95726776123047	-1377.578857421875	1224.601684570312	42.61029052734375	-1623.011474609375	1160.094970703125	42.60516357421875	-1598.363891601562	1411.095825195312	33.88187026977539	-1436.15771484375	1341.043823242188	43.21051406860352	-1633.22412109375	1261.190185546875	98.27108001708984	-1608.2900390625	1374.192138671875	-69.70259857177734	-1521.955444335938	1396.170166015625	-118.0465621948242	-1538.051025390625	1278.855224609375	-190.6457824707031	-1502.217651367188	1083.462524414062	-214.3564147949219	-1559.26318359375	1057.923706054688	-156.7453460693359	-1393.764038085938	879.0867309570312	-158.0066833496094	-1434.073486328125	861.9694213867188	-226.6525421142578	-1473.974609375	981.27197265625	-220.4994506835938	-1377.768676757812	702.4581909179688	-155.5687255859375	-1410.255249023438	778.3108520507812	-216.0453033447266	-1361.993530273438	785.4059448242188	-175.5050048828125	-1545.444702148438	1391.381713867188	192.6268920898438	-1558.892822265625	1325.276611328125	250.7366485595703	-1540.55908203125	1065.604858398438	296.6918334960938	-1558.281372070312	1051.540649414062	204.5376129150391	-1438.852416992188	848.9525756835938	334.7720947265625	-1509.823974609375	1002.93310546875	315.5912170410156	-1389.012451171875	688.0249633789062	282.9281921386719	-1428.72412109375	759.3746337890625	337.8871459960938	-1578.27587890625	1599.189208984375	115.7816619873047	-1419.170166015625	1615.758056640625	-4.657984733581543	-1445.62548828125	1618.90966796875	115.2876434326172	-1559.922607421875	1591.157836914062	-45.77746963500977	-1530.074584960938	972.95703125	-138.5669860839844	-1512.85791015625	966.1195068359375	219.0083160400391	-1382.710083007812	978.7977294921875	157.9258422851562	-1414.188720703125	972.1759643554688	-104.0087814331055	-1482.321655273438	479.7555236816406	-127.1381759643555	-1490.482177734375	622.5504150390625	-136.7599945068359	-1566.57421875	43.97487640380859	-86.21904754638672	-1526.740356445312	247.2635650634766	-119.6123962402344	-1351.010986328125	47.10119247436523	-21.41410446166992	-1432.001831054688	46.58856201171875	7.223633289337158	-1438.778930664062	42.81311416625977	-97.76222991943359	-1603.2041015625	41.52323532104492	-28.24920845031738	-1480.42822265625	477.8065490722656	194.5782165527344	-1438.364379882812	740.5894165039062	217.8362426757812	-1530.039184570312	55.61962890625	154.6976470947266	-1473.32275390625	351.6722717285156	178.0934448242188	-1355.112915039062	43.06467437744141	82.89647674560547	-1429.657592773438	46.79546737670898	57.25661468505859	-1445.281982421875	46.96284866333008	156.7681579589844	-1604.062866210938	44.5048713684082	104.1523361206055	-1375.310180664062	756.322509765625	298.3041076660156	-1398.181640625	860.4318237304688	274.4792785644531	nan	nan	nan	nan	nan	nan	
